<?xml version="1.0" encoding="utf-8" standalone="no"?>
<!DOCTYPE svg PUBLIC "-//W3C//DTD SVG 1.1//EN"
  "http://www.w3.org/Graphics/SVG/1.1/DTD/svg11.dtd">
<svg xmlns:xlink="http://www.w3.org/1999/xlink" width="720pt" height="576pt" viewBox="0 0 720 576" xmlns="http://www.w3.org/2000/svg" version="1.1">
 <metadata>
  <rdf:RDF xmlns:dc="http://purl.org/dc/elements/1.1/" xmlns:cc="http://creativecommons.org/ns#" xmlns:rdf="http://www.w3.org/1999/02/22-rdf-syntax-ns#">
   <cc:Work>
    <dc:type rdf:resource="http://purl.org/dc/dcmitype/StillImage"/>
    <dc:date>2023-06-19T02:49:49.058816</dc:date>
    <dc:format>image/svg+xml</dc:format>
    <dc:creator>
     <cc:Agent>
      <dc:title>Matplotlib v3.5.3, https://matplotlib.org/</dc:title>
     </cc:Agent>
    </dc:creator>
   </cc:Work>
  </rdf:RDF>
 </metadata>
 <defs>
  <style type="text/css">*{stroke-linejoin: round; stroke-linecap: butt}</style>
 </defs>
 <g id="figure_1">
  <g id="patch_1">
   <path d="M 0 576 
L 720 576 
L 720 0 
L 0 0 
z
" style="fill: #ffffff"/>
  </g>
  <g id="axes_1">
   <g id="patch_2">
    <path d="M 58.8 531.7 
L 709.2 531.7 
L 709.2 24.8 
L 58.8 24.8 
z
" style="fill: #ffffff"/>
   </g>
   <g id="matplotlib.axis_1">
    <g id="xtick_1">
     <g id="text_1">
      <!-- 相似的形态 -->
      <g style="fill: #262626" transform="translate(69.933333 549.229687)scale(0.1 -0.1)">
       <defs>
        <path id="SourceHanSerifK-Light-76f8" d="M 2074 3872 
L 1773 3872 
L 1773 5094 
C 1933 5120 1984 5184 2003 5274 
L 1427 5338 
L 1427 3872 
L 314 3872 
L 365 3680 
L 1312 3680 
C 1094 2726 723 1741 211 1005 
L 301 915 
C 781 1453 1158 2093 1427 2797 
L 1427 -474 
L 1504 -474 
C 1626 -474 1773 -390 1773 -333 
L 1773 2963 
C 2054 2688 2387 2272 2490 1965 
C 2880 1690 3136 2522 1773 3091 
L 1773 3680 
L 2669 3680 
C 2758 3680 2822 3712 2835 3782 
C 2643 3962 2336 4218 2336 4218 
L 2074 3872 
z
M 3392 307 
L 3392 1670 
L 5434 1670 
L 5434 307 
L 3392 307 
z
M 5434 3194 
L 5434 1856 
L 3392 1856 
L 3392 3194 
L 5434 3194 
z
M 5434 4685 
L 5434 3386 
L 3392 3386 
L 3392 4685 
L 5434 4685 
z
M 5587 5107 
L 5370 4864 
L 3424 4864 
L 3040 5056 
L 3040 -435 
L 3110 -435 
C 3270 -435 3392 -346 3392 -294 
L 3392 122 
L 5434 122 
L 5434 -422 
L 5485 -422 
C 5613 -422 5773 -314 5779 -275 
L 5779 4608 
C 5907 4634 6016 4685 6061 4736 
L 5587 5107 
z
" transform="scale(0.015625)"/>
        <path id="SourceHanSerifK-Light-4f3c" d="M 3373 4282 
C 3629 3910 3955 3315 4019 2880 
C 4422 2528 4762 3450 3450 4320 
L 3373 4282 
z
M 1677 5344 
C 1344 4141 781 2938 237 2176 
L 333 2106 
C 608 2394 870 2746 1114 3142 
L 1114 -474 
L 1171 -474 
C 1299 -474 1440 -384 1453 -352 
L 1453 3469 
C 1562 3482 1626 3526 1638 3584 
L 1421 3674 
C 1645 4096 1850 4557 2016 5030 
C 2157 5030 2234 5082 2259 5158 
L 1677 5344 
z
M 4365 1728 
C 3821 1510 3290 1293 2835 1120 
L 2835 4774 
C 2976 4800 3027 4858 3040 4941 
L 2496 5005 
L 2496 992 
C 2208 883 1971 800 1818 755 
L 2054 288 
C 2106 314 2150 384 2170 454 
C 3117 934 3859 1344 4397 1632 
L 4365 1728 
z
M 5222 5069 
C 5216 2611 5325 851 2419 -326 
L 2496 -448 
C 3654 -32 4378 474 4826 1069 
C 5178 646 5638 51 5798 -365 
C 6214 -640 6438 211 4896 1165 
C 5587 2157 5568 3386 5594 4826 
C 5741 4845 5792 4909 5811 4998 
L 5222 5069 
z
" transform="scale(0.015625)"/>
        <path id="SourceHanSerifK-Light-7684" d="M 896 659 
L 896 2291 
L 2125 2291 
L 2125 659 
L 896 659 
z
M 2125 4013 
L 2125 2483 
L 896 2483 
L 896 4013 
L 2125 4013 
z
M 2272 4435 
L 2067 4205 
L 1389 4205 
C 1536 4454 1722 4813 1843 5075 
C 1978 5075 2054 5126 2074 5216 
L 1491 5344 
C 1421 5005 1299 4506 1216 4205 
L 922 4205 
L 557 4378 
L 557 -147 
L 621 -147 
C 768 -147 896 -58 896 -13 
L 896 467 
L 2125 467 
L 2125 19 
L 2170 19 
C 2285 19 2451 109 2458 147 
L 2458 3942 
C 2579 3968 2694 4019 2739 4070 
L 2272 4435 
z
M 3354 2950 
C 3718 2618 4179 2061 4288 1626 
C 4717 1318 4986 2285 3430 2995 
L 3354 2950 
z
M 5696 4474 
L 5472 4218 
L 3654 4218 
C 3776 4480 3878 4762 3968 5043 
C 4109 5037 4179 5101 4205 5171 
L 3629 5338 
C 3405 4333 2989 3347 2554 2707 
L 2650 2643 
C 2995 3002 3309 3482 3565 4026 
L 5536 4026 
C 5440 1926 5235 410 4947 147 
C 4858 64 4800 45 4659 45 
C 4512 45 4026 96 3738 128 
L 3725 6 
C 3974 -32 4269 -102 4365 -166 
C 4454 -224 4480 -326 4480 -442 
C 4781 -442 5030 -352 5229 -141 
C 5574 250 5798 1760 5888 3981 
C 6029 3994 6112 4026 6157 4077 
L 5696 4474 
z
" transform="scale(0.015625)"/>
        <path id="SourceHanSerifK-Light-5f62" d="M 3763 3290 
C 4550 3680 5280 4256 5798 4883 
C 5939 4858 5990 4870 6035 4934 
L 5517 5222 
C 5050 4499 4390 3859 3680 3398 
L 3763 3290 
z
M 3475 1555 
C 4410 1939 5229 2515 5830 3258 
C 5978 3226 6035 3245 6074 3309 
L 5555 3590 
C 5005 2758 4262 2118 3418 1658 
L 3475 1555 
z
M 1498 2950 
L 1498 4640 
L 2566 4640 
L 2566 2950 
L 1498 2950 
z
M 3827 2758 
C 3904 2758 3968 2790 3987 2861 
C 3795 3046 3475 3296 3475 3296 
L 3200 2950 
L 2912 2950 
L 2912 4640 
L 3674 4640 
C 3763 4640 3827 4672 3846 4742 
C 3642 4928 3328 5178 3328 5178 
L 3059 4826 
L 422 4826 
L 474 4640 
L 1158 4640 
L 1158 2950 
L 269 2950 
L 320 2758 
L 1158 2758 
C 1146 1658 1030 506 250 -429 
L 339 -506 
C 1338 371 1485 1638 1498 2758 
L 2566 2758 
L 2566 -442 
L 2618 -442 
C 2797 -442 2912 -346 2912 -320 
L 2912 2758 
L 3827 2758 
z
M 5683 1984 
C 5043 870 4173 166 3091 -352 
L 3155 -467 
C 4326 -32 5267 627 5971 1645 
C 6118 1619 6176 1638 6221 1702 
L 5683 1984 
z
" transform="scale(0.015625)"/>
        <path id="SourceHanSerifK-Light-6001" d="M 1229 1568 
C 1197 1011 877 525 563 339 
C 461 256 397 141 454 45 
C 531 -64 736 -13 890 115 
C 1133 294 1472 787 1350 1562 
L 1229 1568 
z
M 4730 794 
L 4646 794 
C 4582 467 4512 192 4461 96 
C 4435 32 4416 13 4326 6 
C 4218 0 3923 -6 3507 -6 
L 2643 -6 
C 2330 -6 2298 19 2298 122 
L 2298 1485 
C 2419 1504 2483 1562 2496 1638 
L 1958 1709 
L 1958 58 
C 1958 -237 2061 -320 2605 -320 
L 3501 -320 
C 4717 -320 4928 -262 4928 -90 
C 4928 -13 4883 26 4742 70 
L 4730 794 
z
M 2810 1837 
C 3104 1549 3475 1069 3546 698 
C 3917 410 4173 1261 2880 1882 
L 2810 1837 
z
M 4877 1491 
C 5235 1158 5664 582 5747 134 
C 6163 -179 6438 806 4954 1549 
L 4877 1491 
z
M 5939 4083 
C 6029 4083 6086 4115 6106 4186 
C 5901 4371 5587 4614 5587 4614 
L 5318 4275 
L 3155 4275 
C 3238 4531 3302 4800 3354 5075 
C 3475 5075 3558 5114 3584 5222 
L 2995 5344 
C 2950 4966 2874 4614 2765 4275 
L 397 4275 
L 454 4083 
L 2694 4083 
C 2330 3110 1619 2304 237 1805 
L 294 1715 
C 1325 2022 2016 2483 2483 3046 
C 2803 2803 3187 2413 3322 2125 
C 3712 1907 3891 2682 2554 3130 
C 2784 3424 2957 3744 3085 4083 
L 3520 4083 
C 3936 3008 4781 2208 5818 1760 
C 5869 1920 5990 2029 6144 2042 
L 6157 2106 
C 5101 2445 4128 3155 3674 4083 
L 5939 4083 
z
" transform="scale(0.015625)"/>
       </defs>
       <use xlink:href="#SourceHanSerifK-Light-76f8"/>
       <use xlink:href="#SourceHanSerifK-Light-4f3c" x="99.999985"/>
       <use xlink:href="#SourceHanSerifK-Light-7684" x="199.999969"/>
       <use xlink:href="#SourceHanSerifK-Light-5f62" x="299.999954"/>
       <use xlink:href="#SourceHanSerifK-Light-6001" x="399.999939"/>
      </g>
     </g>
    </g>
    <g id="xtick_2">
     <g id="text_2">
      <!-- 美好的样子 -->
      <g style="fill: #262626" transform="translate(142.2 549.229687)scale(0.1 -0.1)">
       <defs>
        <path id="SourceHanSerifK-Light-7f8e" d="M 442 2477 
L 499 2291 
L 5843 2291 
C 5933 2291 5990 2323 6010 2394 
C 5811 2566 5491 2816 5491 2816 
L 5222 2477 
L 3360 2477 
L 3360 3238 
L 5318 3238 
C 5408 3238 5472 3270 5491 3341 
C 5293 3514 4992 3757 4992 3757 
L 4723 3424 
L 3360 3424 
L 3360 4147 
L 5619 4147 
C 5709 4147 5773 4179 5786 4250 
C 5587 4435 5267 4678 5267 4678 
L 4992 4333 
L 3872 4333 
C 4122 4563 4371 4838 4538 5056 
C 4672 5050 4755 5094 4781 5165 
L 4218 5363 
C 4090 5056 3878 4634 3686 4333 
L 2451 4333 
C 2701 4371 2758 4966 1818 5318 
L 1747 5274 
C 1971 5062 2227 4685 2285 4384 
C 2323 4352 2362 4339 2400 4333 
L 742 4333 
L 800 4147 
L 3008 4147 
L 3008 3424 
L 1056 3424 
L 1107 3238 
L 3008 3238 
L 3008 2477 
L 442 2477 
z
M 5958 1274 
C 6048 1274 6106 1306 6125 1376 
C 5920 1562 5594 1811 5594 1811 
L 5306 1466 
L 3219 1466 
C 3251 1626 3270 1792 3290 1971 
C 3430 1984 3494 2054 3507 2131 
L 2925 2202 
C 2912 1933 2886 1690 2842 1466 
L 294 1466 
L 352 1274 
L 2784 1274 
C 2560 563 1958 70 256 -352 
L 301 -486 
C 2362 -70 2957 480 3174 1274 
L 3296 1274 
C 3725 256 4525 -205 5850 -454 
C 5894 -275 5997 -166 6157 -141 
L 6163 -70 
C 4845 77 3917 442 3450 1274 
L 5958 1274 
z
" transform="scale(0.015625)"/>
        <path id="SourceHanSerifK-Light-597d" d="M 2189 3622 
C 2118 2835 1984 2093 1702 1440 
C 1485 1581 1216 1722 902 1850 
C 1062 2394 1242 3034 1395 3622 
L 2189 3622 
z
M 2368 4045 
L 2144 3814 
L 1446 3814 
C 1568 4307 1677 4755 1734 5062 
C 1894 5062 1958 5120 1984 5203 
L 1434 5325 
C 1370 4947 1248 4397 1107 3814 
L 262 3814 
L 314 3622 
L 1056 3622 
C 832 2733 563 1798 358 1267 
C 506 1222 653 1229 723 1280 
C 768 1421 813 1568 864 1734 
C 1101 1581 1350 1389 1581 1171 
C 1280 582 838 77 192 -320 
L 256 -416 
C 973 -58 1459 416 1792 960 
C 2074 666 2291 346 2374 45 
C 2758 -192 2912 531 1958 1261 
C 2304 1952 2451 2752 2547 3578 
C 2682 3590 2739 3610 2790 3661 
L 2368 4045 
z
M 5434 2598 
L 4506 2598 
L 4506 3488 
C 4659 3507 4717 3565 4736 3654 
L 4608 3667 
C 5005 3962 5466 4378 5754 4627 
C 5894 4634 5978 4640 6029 4685 
L 5587 5107 
L 5325 4851 
L 2746 4851 
L 2803 4672 
L 5267 4672 
C 5050 4384 4730 3981 4448 3693 
L 4166 3725 
L 4166 2598 
L 2618 2598 
L 2669 2413 
L 4166 2413 
L 4166 134 
C 4166 26 4128 -13 3994 -13 
C 3853 -13 3098 45 3098 45 
L 3098 -58 
C 3411 -96 3603 -147 3706 -205 
C 3802 -269 3846 -365 3866 -474 
C 4442 -410 4506 -205 4506 102 
L 4506 2413 
L 6042 2413 
C 6131 2413 6189 2445 6202 2515 
C 6016 2694 5702 2944 5702 2944 
L 5434 2598 
z
" transform="scale(0.015625)"/>
        <path id="SourceHanSerifK-Light-6837" d="M 2867 5280 
C 3110 5005 3398 4557 3475 4211 
C 3853 3917 4173 4730 2944 5325 
L 2867 5280 
z
M 1619 3686 
L 2490 3686 
C 2579 3686 2643 3718 2656 3789 
C 2470 3974 2163 4218 2163 4218 
L 1894 3878 
L 1619 3878 
L 1619 5107 
C 1779 5133 1830 5190 1850 5286 
L 1286 5350 
L 1286 3878 
L 346 3878 
L 397 3686 
L 1190 3686 
C 992 2694 640 1722 102 966 
L 198 877 
C 678 1408 1037 2022 1286 2707 
L 1286 -461 
L 1357 -461 
C 1472 -461 1619 -384 1619 -326 
L 1619 2950 
C 1850 2688 2106 2323 2182 2042 
C 2554 1786 2829 2541 1619 3098 
L 1619 3686 
z
M 5427 1382 
L 4352 1382 
L 4352 2592 
L 5664 2592 
C 5754 2592 5818 2624 5830 2694 
C 5638 2880 5325 3123 5325 3123 
L 5050 2784 
L 4352 2784 
L 4352 3840 
L 5850 3840 
C 5933 3840 5990 3872 6010 3942 
C 5824 4128 5504 4371 5504 4371 
L 5235 4032 
L 4602 4032 
C 4877 4352 5165 4736 5363 5018 
C 5491 5005 5574 5050 5606 5120 
L 4992 5357 
C 4851 4979 4614 4429 4442 4032 
L 2669 4032 
L 2720 3840 
L 4019 3840 
L 4019 2784 
L 2810 2784 
L 2854 2592 
L 4019 2592 
L 4019 1382 
L 2374 1382 
L 2426 1190 
L 4019 1190 
L 4019 -480 
L 4064 -480 
C 4237 -480 4352 -390 4352 -365 
L 4352 1190 
L 6035 1190 
C 6125 1190 6189 1222 6208 1293 
C 6003 1485 5696 1728 5696 1728 
L 5427 1382 
z
" transform="scale(0.015625)"/>
        <path id="SourceHanSerifK-Light-5b50" d="M 5229 2573 
L 3411 2573 
L 3411 3386 
C 3558 3405 3616 3456 3635 3546 
L 3514 3558 
C 4141 3840 4806 4269 5242 4589 
C 5389 4595 5472 4608 5523 4653 
L 5062 5082 
L 4787 4819 
L 947 4819 
L 1005 4634 
L 4685 4634 
C 4346 4301 3827 3878 3347 3578 
L 3053 3616 
L 3053 2573 
L 301 2573 
L 358 2387 
L 3053 2387 
L 3053 134 
C 3053 13 3014 -32 2854 -32 
C 2675 -32 1728 38 1728 38 
L 1728 -70 
C 2118 -109 2349 -160 2483 -224 
C 2592 -275 2643 -365 2669 -474 
C 3334 -416 3411 -198 3411 109 
L 3411 2387 
L 5952 2387 
C 6042 2387 6106 2419 6125 2490 
C 5894 2682 5549 2963 5549 2963 
L 5229 2573 
z
" transform="scale(0.015625)"/>
       </defs>
       <use xlink:href="#SourceHanSerifK-Light-7f8e"/>
       <use xlink:href="#SourceHanSerifK-Light-597d" x="99.999985"/>
       <use xlink:href="#SourceHanSerifK-Light-7684" x="199.999969"/>
       <use xlink:href="#SourceHanSerifK-Light-6837" x="299.999954"/>
       <use xlink:href="#SourceHanSerifK-Light-5b50" x="399.999939"/>
      </g>
     </g>
    </g>
    <g id="xtick_3">
     <g id="text_3">
      <!-- 美丽的样子 -->
      <g style="fill: #262626" transform="translate(214.466667 549.229687)scale(0.1 -0.1)">
       <defs>
        <path id="SourceHanSerifK-Light-4e3d" d="M 2368 4742 
L 691 4742 
L 742 4550 
L 2989 4550 
C 3072 4550 3130 4582 3149 4653 
C 2957 4838 2650 5088 2650 5088 
L 2368 4742 
z
M 1120 2234 
L 1120 3635 
L 2560 3635 
L 2560 2234 
L 1120 2234 
z
M 2496 3827 
L 1152 3827 
L 787 4006 
L 787 -326 
L 845 -326 
C 998 -326 1120 -237 1120 -205 
L 1120 2048 
L 2560 2048 
L 2560 198 
C 2560 109 2534 70 2438 70 
C 2323 70 1830 115 1830 115 
L 1830 6 
C 2054 -19 2189 -64 2259 -122 
C 2336 -173 2362 -269 2374 -371 
C 2861 -320 2918 -141 2918 160 
L 2918 3558 
C 3046 3584 3149 3635 3194 3686 
L 2701 4064 
L 2496 3827 
z
M 5050 4742 
L 3296 4742 
L 3347 4550 
L 5709 4550 
C 5798 4550 5856 4582 5875 4653 
C 5670 4845 5338 5107 5338 5107 
L 5050 4742 
z
M 3827 2234 
L 3827 3635 
L 5306 3635 
L 5306 2234 
L 3827 2234 
z
M 5440 4064 
L 5242 3827 
L 3859 3827 
L 3494 4006 
L 3494 -326 
L 3552 -326 
C 3706 -326 3827 -237 3827 -198 
L 3827 2048 
L 5306 2048 
L 5306 198 
C 5306 109 5280 70 5184 70 
C 5075 70 4582 115 4582 115 
L 4582 6 
C 4800 -19 4934 -64 5011 -122 
C 5082 -173 5107 -269 5120 -371 
C 5606 -320 5664 -141 5664 160 
L 5664 3558 
C 5792 3584 5894 3635 5939 3686 
L 5440 4064 
z
" transform="scale(0.015625)"/>
       </defs>
       <use xlink:href="#SourceHanSerifK-Light-7f8e"/>
       <use xlink:href="#SourceHanSerifK-Light-4e3d" x="99.999985"/>
       <use xlink:href="#SourceHanSerifK-Light-7684" x="199.999969"/>
       <use xlink:href="#SourceHanSerifK-Light-6837" x="299.999954"/>
       <use xlink:href="#SourceHanSerifK-Light-5b50" x="399.999939"/>
      </g>
     </g>
    </g>
    <g id="xtick_4">
     <g id="text_4">
      <!-- 人 -->
      <g style="fill: #262626" transform="translate(306.733333 549.229687)scale(0.1 -0.1)">
       <defs>
        <path id="SourceHanSerifK-Light-4eba" d="M 2867 5210 
C 2861 3270 2874 1190 282 -365 
L 371 -474 
C 2618 717 3078 2323 3194 3846 
C 3411 1971 4000 493 5747 -474 
C 5811 -275 5958 -224 6144 -205 
L 6163 -141 
C 3936 928 3386 2630 3245 4966 
C 3405 4986 3450 5050 3462 5146 
L 2867 5210 
z
" transform="scale(0.015625)"/>
       </defs>
       <use xlink:href="#SourceHanSerifK-Light-4eba"/>
      </g>
     </g>
    </g>
    <g id="xtick_5">
     <g id="text_5">
      <!-- 风 -->
      <g style="fill: #262626" transform="translate(379 549.229687)scale(0.1 -0.1)">
       <defs>
        <path id="SourceHanSerifK-Light-98ce" d="M 1856 3853 
C 2195 3462 2611 2944 2989 2413 
C 2522 1574 1965 858 1402 352 
L 1491 269 
C 2112 730 2688 1363 3181 2138 
C 3514 1638 3795 1146 3917 742 
C 4294 454 4435 1146 3386 2464 
C 3648 2918 3885 3411 4083 3936 
C 4230 3923 4314 3981 4339 4058 
L 3795 4250 
C 3616 3718 3405 3206 3155 2726 
C 2848 3091 2458 3482 1965 3910 
L 1856 3853 
z
M 6144 947 
L 6061 960 
C 6003 710 5939 474 5869 243 
C 5830 154 5805 141 5728 198 
C 5037 768 4973 3072 5043 4691 
C 5190 4710 5274 4755 5318 4806 
L 4838 5235 
L 4602 4986 
L 1510 4986 
L 1101 5178 
L 1101 2714 
C 1101 1510 992 403 250 -442 
L 352 -512 
C 1344 326 1440 1568 1440 2720 
L 1440 4794 
L 4666 4794 
C 4653 2714 4685 480 5562 -230 
C 5779 -429 6016 -550 6150 -422 
C 6208 -358 6170 -243 6048 -51 
L 6144 947 
z
" transform="scale(0.015625)"/>
       </defs>
       <use xlink:href="#SourceHanSerifK-Light-98ce"/>
      </g>
     </g>
    </g>
    <g id="xtick_6">
     <g id="text_6">
      <!-- 梦 -->
      <g style="fill: #262626" transform="translate(451.266667 549.229687)scale(0.1 -0.1)">
       <defs>
        <path id="SourceHanSerifK-Light-68a6" d="M 1606 2304 
L 1670 2304 
C 1792 2304 1926 2387 1926 2438 
L 1926 3808 
C 2208 3629 2515 3347 2618 3117 
C 3027 2912 3174 3712 1926 3930 
L 1926 4250 
L 2880 4250 
C 2970 4250 3027 4282 3040 4352 
C 2861 4531 2566 4762 2566 4762 
L 2304 4442 
L 1926 4442 
L 1926 5146 
C 2086 5171 2150 5229 2157 5312 
L 1606 5382 
L 1606 4442 
L 384 4442 
L 435 4250 
L 1389 4250 
C 1165 3584 781 2970 262 2483 
L 346 2381 
C 896 2778 1318 3264 1606 3840 
L 1606 2304 
z
M 4640 2022 
L 2515 2022 
C 2566 2080 2611 2138 2662 2195 
C 2829 2189 2912 2227 2938 2285 
L 2413 2509 
C 2048 1907 1222 1126 371 685 
L 442 595 
C 979 806 1478 1120 1894 1453 
C 2189 1261 2502 979 2605 723 
C 2957 531 3091 1229 2029 1562 
C 2138 1645 2227 1741 2323 1830 
L 4550 1830 
C 3654 627 2336 58 442 -339 
L 486 -467 
C 2656 -134 4019 499 4998 1779 
C 5158 1786 5248 1798 5299 1850 
L 4870 2240 
L 4640 2022 
z
M 5894 4256 
C 5984 4256 6042 4288 6061 4358 
C 5869 4538 5574 4774 5574 4774 
L 5306 4442 
L 4538 4442 
L 4538 5114 
C 4698 5133 4762 5197 4768 5286 
L 4198 5350 
L 4198 4442 
L 3142 4442 
L 3194 4256 
L 3962 4256 
C 3699 3610 3270 3027 2682 2592 
L 2746 2483 
C 3386 2854 3872 3328 4198 3910 
L 4198 2310 
L 4269 2310 
C 4390 2310 4538 2387 4538 2438 
L 4538 4230 
C 4826 3482 5306 2880 5843 2522 
C 5894 2694 6016 2790 6150 2810 
L 6157 2874 
C 5606 3123 5018 3635 4685 4256 
L 5894 4256 
z
" transform="scale(0.015625)"/>
       </defs>
       <use xlink:href="#SourceHanSerifK-Light-68a6"/>
      </g>
     </g>
    </g>
    <g id="xtick_7">
     <g id="text_7">
      <!-- 我 -->
      <g style="fill: #262626" transform="translate(523.533333 549.229687)scale(0.1 -0.1)">
       <defs>
        <path id="SourceHanSerifK-Light-6211" d="M 4416 4902 
C 4730 4666 5114 4250 5222 3917 
C 5606 3674 5830 4486 4486 4954 
L 4416 4902 
z
M 6061 934 
L 5971 947 
C 5907 698 5798 397 5734 243 
C 5683 115 5645 109 5536 198 
C 5146 435 4851 787 4627 1222 
C 4986 1632 5267 2061 5466 2477 
C 5632 2458 5683 2483 5722 2554 
L 5184 2778 
C 5024 2362 4787 1939 4486 1536 
C 4307 1997 4186 2522 4115 3091 
L 5965 3091 
C 6054 3091 6118 3123 6131 3194 
C 5926 3386 5600 3635 5600 3635 
L 5306 3283 
L 4090 3283 
C 4032 3846 4006 4448 4013 5056 
C 4173 5082 4230 5158 4243 5229 
L 3654 5299 
C 3654 4589 3686 3910 3757 3283 
L 2214 3283 
L 2214 4563 
C 2547 4659 2854 4755 3104 4851 
C 3245 4800 3347 4806 3405 4858 
L 2963 5216 
C 2406 4896 1293 4486 365 4288 
L 403 4179 
C 890 4243 1402 4352 1875 4474 
L 1875 3283 
L 275 3283 
L 333 3091 
L 1875 3091 
L 1875 1939 
C 1184 1760 608 1619 294 1568 
L 506 1114 
C 563 1133 621 1184 640 1261 
C 1088 1402 1498 1542 1875 1670 
L 1875 115 
C 1875 19 1843 -26 1715 -26 
C 1587 -26 922 26 922 26 
L 922 -70 
C 1210 -109 1376 -154 1478 -218 
C 1562 -269 1606 -378 1619 -480 
C 2150 -422 2214 -192 2214 102 
L 2214 1786 
C 2739 1965 3187 2131 3565 2266 
L 3533 2374 
C 3078 2253 2630 2131 2214 2022 
L 2214 3091 
L 3782 3091 
C 3872 2400 4019 1773 4256 1242 
C 3770 666 3149 154 2438 -211 
L 2490 -301 
C 3245 6 3878 454 4384 966 
C 4634 499 4954 122 5376 -154 
C 5664 -352 6010 -499 6125 -320 
C 6157 -256 6144 -186 5965 6 
L 6061 934 
z
" transform="scale(0.015625)"/>
       </defs>
       <use xlink:href="#SourceHanSerifK-Light-6211"/>
      </g>
     </g>
    </g>
    <g id="xtick_8">
     <g id="text_8">
      <!-- 你 -->
      <g style="fill: #262626" transform="translate(595.8 549.229687)scale(0.1 -0.1)">
       <defs>
        <path id="SourceHanSerifK-Light-4f60" d="M 1709 5350 
C 1376 4134 800 2925 243 2163 
L 333 2093 
C 621 2387 890 2752 1146 3162 
L 1146 -474 
L 1203 -474 
C 1338 -474 1485 -384 1491 -352 
L 1491 3469 
C 1600 3482 1658 3526 1677 3584 
L 1440 3674 
C 1670 4102 1875 4563 2048 5037 
C 2182 5030 2259 5088 2285 5165 
L 1709 5350 
z
M 2970 2867 
C 2746 1965 2342 1120 1907 582 
L 2010 506 
C 2534 979 2995 1722 3296 2560 
C 3430 2560 3501 2611 3526 2694 
L 2970 2867 
z
M 3923 122 
C 3923 19 3885 -19 3770 -19 
C 3629 -19 2918 32 2918 32 
L 2918 -70 
C 3219 -109 3398 -154 3494 -211 
C 3584 -269 3622 -365 3648 -474 
C 4205 -416 4275 -218 4275 90 
L 4275 3629 
C 4422 3648 4480 3706 4499 3802 
L 3923 3866 
L 3923 122 
z
M 4742 2790 
C 5120 2221 5658 1331 5786 717 
C 6208 358 6438 1402 4838 2835 
L 4742 2790 
z
M 5690 4384 
L 5459 4141 
L 3066 4141 
C 3200 4422 3322 4717 3424 5024 
C 3558 5018 3629 5075 3654 5152 
L 3078 5331 
C 2829 4275 2368 3270 1882 2624 
L 1971 2554 
C 2349 2906 2688 3392 2970 3949 
L 5485 3949 
C 5414 3661 5312 3277 5222 3034 
L 5312 2982 
C 5517 3232 5760 3629 5888 3891 
C 6010 3904 6086 3910 6131 3962 
L 5690 4384 
z
" transform="scale(0.015625)"/>
       </defs>
       <use xlink:href="#SourceHanSerifK-Light-4f60"/>
      </g>
     </g>
    </g>
    <g id="xtick_9">
     <g id="text_9">
      <!-- 爱 -->
      <g style="fill: #262626" transform="translate(668.066667 549.229687)scale(0.1 -0.1)">
       <defs>
        <path id="SourceHanSerifK-Light-7231" d="M 5178 5331 
C 4147 5107 2246 4877 730 4794 
L 749 4653 
C 2298 4672 4032 4826 5235 4979 
C 5370 4909 5485 4909 5549 4954 
L 5178 5331 
z
M 2547 4621 
C 2739 4371 2976 3949 3008 3642 
C 3341 3347 3680 4070 2624 4666 
L 2547 4621 
z
M 1197 4499 
C 1389 4269 1626 3885 1677 3597 
C 2010 3322 2330 4038 1274 4538 
L 1197 4499 
z
M 4397 1510 
C 4109 1075 3776 742 3379 480 
C 2829 717 2400 1050 2106 1510 
L 4397 1510 
z
M 4691 1907 
L 4467 1702 
L 2189 1702 
C 2278 1869 2362 2054 2432 2227 
L 5363 2227 
C 5453 2227 5510 2259 5530 2330 
C 5325 2509 5011 2726 5011 2726 
L 4736 2419 
L 2509 2419 
C 2573 2598 2630 2771 2675 2950 
C 2842 2944 2893 2970 2918 3046 
L 2330 3181 
C 2285 2918 2214 2669 2131 2419 
L 800 2419 
L 858 2227 
L 2061 2227 
C 1702 1248 1088 365 269 -192 
L 352 -282 
C 1050 128 1606 717 2016 1389 
C 2285 928 2643 570 3085 307 
C 2502 -6 1805 -211 947 -378 
L 979 -499 
C 1965 -365 2739 -173 3366 154 
C 4006 -160 4794 -339 5747 -435 
C 5779 -269 5894 -154 6054 -122 
L 6061 -45 
C 5158 6 4365 122 3706 352 
C 4147 634 4506 992 4826 1466 
C 4966 1472 5056 1491 5107 1536 
L 4691 1907 
z
M 5677 3718 
L 5440 3475 
L 4275 3475 
C 4570 3763 4864 4147 5050 4442 
C 5178 4435 5261 4486 5293 4563 
L 4730 4730 
C 4589 4339 4339 3840 4090 3475 
L 934 3475 
C 928 3552 915 3635 896 3712 
L 794 3718 
C 774 3328 563 3014 435 2912 
C 115 2682 390 2387 659 2598 
C 845 2720 941 2970 947 3283 
L 5472 3283 
C 5427 3059 5357 2771 5318 2611 
L 5421 2579 
C 5549 2733 5760 3053 5882 3219 
C 5997 3226 6074 3238 6112 3290 
L 5677 3718 
z
" transform="scale(0.015625)"/>
       </defs>
       <use xlink:href="#SourceHanSerifK-Light-7231"/>
      </g>
     </g>
    </g>
    <g id="text_10">
     <!-- Top Labels -->
     <g style="fill: #262626" transform="translate(354.983438 564.439375)scale(0.12 -0.12)">
      <defs>
       <path id="ArialMT-54" d="M 1659 0 
L 1659 4041 
L 150 4041 
L 150 4581 
L 3781 4581 
L 3781 4041 
L 2266 4041 
L 2266 0 
L 1659 0 
z
" transform="scale(0.015625)"/>
       <path id="ArialMT-6f" d="M 213 1659 
Q 213 2581 725 3025 
Q 1153 3394 1769 3394 
Q 2453 3394 2887 2945 
Q 3322 2497 3322 1706 
Q 3322 1066 3130 698 
Q 2938 331 2570 128 
Q 2203 -75 1769 -75 
Q 1072 -75 642 372 
Q 213 819 213 1659 
z
M 791 1659 
Q 791 1022 1069 705 
Q 1347 388 1769 388 
Q 2188 388 2466 706 
Q 2744 1025 2744 1678 
Q 2744 2294 2464 2611 
Q 2184 2928 1769 2928 
Q 1347 2928 1069 2612 
Q 791 2297 791 1659 
z
" transform="scale(0.015625)"/>
       <path id="ArialMT-70" d="M 422 -1272 
L 422 3319 
L 934 3319 
L 934 2888 
Q 1116 3141 1344 3267 
Q 1572 3394 1897 3394 
Q 2322 3394 2647 3175 
Q 2972 2956 3137 2557 
Q 3303 2159 3303 1684 
Q 3303 1175 3120 767 
Q 2938 359 2589 142 
Q 2241 -75 1856 -75 
Q 1575 -75 1351 44 
Q 1128 163 984 344 
L 984 -1272 
L 422 -1272 
z
M 931 1641 
Q 931 1000 1190 694 
Q 1450 388 1819 388 
Q 2194 388 2461 705 
Q 2728 1022 2728 1688 
Q 2728 2322 2467 2637 
Q 2206 2953 1844 2953 
Q 1484 2953 1207 2617 
Q 931 2281 931 1641 
z
" transform="scale(0.015625)"/>
       <path id="ArialMT-20" transform="scale(0.015625)"/>
       <path id="ArialMT-4c" d="M 469 0 
L 469 4581 
L 1075 4581 
L 1075 541 
L 3331 541 
L 3331 0 
L 469 0 
z
" transform="scale(0.015625)"/>
       <path id="ArialMT-61" d="M 2588 409 
Q 2275 144 1986 34 
Q 1697 -75 1366 -75 
Q 819 -75 525 192 
Q 231 459 231 875 
Q 231 1119 342 1320 
Q 453 1522 633 1644 
Q 813 1766 1038 1828 
Q 1203 1872 1538 1913 
Q 2219 1994 2541 2106 
Q 2544 2222 2544 2253 
Q 2544 2597 2384 2738 
Q 2169 2928 1744 2928 
Q 1347 2928 1158 2789 
Q 969 2650 878 2297 
L 328 2372 
Q 403 2725 575 2942 
Q 747 3159 1072 3276 
Q 1397 3394 1825 3394 
Q 2250 3394 2515 3294 
Q 2781 3194 2906 3042 
Q 3031 2891 3081 2659 
Q 3109 2516 3109 2141 
L 3109 1391 
Q 3109 606 3145 398 
Q 3181 191 3288 0 
L 2700 0 
Q 2613 175 2588 409 
z
M 2541 1666 
Q 2234 1541 1622 1453 
Q 1275 1403 1131 1340 
Q 988 1278 909 1158 
Q 831 1038 831 891 
Q 831 666 1001 516 
Q 1172 366 1500 366 
Q 1825 366 2078 508 
Q 2331 650 2450 897 
Q 2541 1088 2541 1459 
L 2541 1666 
z
" transform="scale(0.015625)"/>
       <path id="ArialMT-62" d="M 941 0 
L 419 0 
L 419 4581 
L 981 4581 
L 981 2947 
Q 1338 3394 1891 3394 
Q 2197 3394 2470 3270 
Q 2744 3147 2920 2923 
Q 3097 2700 3197 2384 
Q 3297 2069 3297 1709 
Q 3297 856 2875 390 
Q 2453 -75 1863 -75 
Q 1275 -75 941 416 
L 941 0 
z
M 934 1684 
Q 934 1088 1097 822 
Q 1363 388 1816 388 
Q 2184 388 2453 708 
Q 2722 1028 2722 1663 
Q 2722 2313 2464 2622 
Q 2206 2931 1841 2931 
Q 1472 2931 1203 2611 
Q 934 2291 934 1684 
z
" transform="scale(0.015625)"/>
       <path id="ArialMT-65" d="M 2694 1069 
L 3275 997 
Q 3138 488 2766 206 
Q 2394 -75 1816 -75 
Q 1088 -75 661 373 
Q 234 822 234 1631 
Q 234 2469 665 2931 
Q 1097 3394 1784 3394 
Q 2450 3394 2872 2941 
Q 3294 2488 3294 1666 
Q 3294 1616 3291 1516 
L 816 1516 
Q 847 969 1125 678 
Q 1403 388 1819 388 
Q 2128 388 2347 550 
Q 2566 713 2694 1069 
z
M 847 1978 
L 2700 1978 
Q 2663 2397 2488 2606 
Q 2219 2931 1791 2931 
Q 1403 2931 1139 2672 
Q 875 2413 847 1978 
z
" transform="scale(0.015625)"/>
       <path id="ArialMT-6c" d="M 409 0 
L 409 4581 
L 972 4581 
L 972 0 
L 409 0 
z
" transform="scale(0.015625)"/>
       <path id="ArialMT-73" d="M 197 991 
L 753 1078 
Q 800 744 1014 566 
Q 1228 388 1613 388 
Q 2000 388 2187 545 
Q 2375 703 2375 916 
Q 2375 1106 2209 1216 
Q 2094 1291 1634 1406 
Q 1016 1563 777 1677 
Q 538 1791 414 1992 
Q 291 2194 291 2438 
Q 291 2659 392 2848 
Q 494 3038 669 3163 
Q 800 3259 1026 3326 
Q 1253 3394 1513 3394 
Q 1903 3394 2198 3281 
Q 2494 3169 2634 2976 
Q 2775 2784 2828 2463 
L 2278 2388 
Q 2241 2644 2061 2787 
Q 1881 2931 1553 2931 
Q 1166 2931 1000 2803 
Q 834 2675 834 2503 
Q 834 2394 903 2306 
Q 972 2216 1119 2156 
Q 1203 2125 1616 2013 
Q 2213 1853 2448 1751 
Q 2684 1650 2818 1456 
Q 2953 1263 2953 975 
Q 2953 694 2789 445 
Q 2625 197 2315 61 
Q 2006 -75 1616 -75 
Q 969 -75 630 194 
Q 291 463 197 991 
z
" transform="scale(0.015625)"/>
      </defs>
      <use xlink:href="#ArialMT-54"/>
      <use xlink:href="#ArialMT-6f" x="49.958984"/>
      <use xlink:href="#ArialMT-70" x="105.574219"/>
      <use xlink:href="#ArialMT-20" x="161.189453"/>
      <use xlink:href="#ArialMT-4c" x="188.972656"/>
      <use xlink:href="#ArialMT-61" x="244.587891"/>
      <use xlink:href="#ArialMT-62" x="300.203125"/>
      <use xlink:href="#ArialMT-65" x="355.818359"/>
      <use xlink:href="#ArialMT-6c" x="411.433594"/>
      <use xlink:href="#ArialMT-73" x="433.650391"/>
     </g>
    </g>
   </g>
   <g id="matplotlib.axis_2">
    <g id="ytick_1">
     <g id="text_11">
      <!-- 0 -->
      <g style="fill: #262626" transform="translate(43.182969 535.636797)scale(0.11 -0.11)">
       <defs>
        <path id="ArialMT-30" d="M 266 2259 
Q 266 3072 433 3567 
Q 600 4063 929 4331 
Q 1259 4600 1759 4600 
Q 2128 4600 2406 4451 
Q 2684 4303 2865 4023 
Q 3047 3744 3150 3342 
Q 3253 2941 3253 2259 
Q 3253 1453 3087 958 
Q 2922 463 2592 192 
Q 2263 -78 1759 -78 
Q 1097 -78 719 397 
Q 266 969 266 2259 
z
M 844 2259 
Q 844 1131 1108 757 
Q 1372 384 1759 384 
Q 2147 384 2411 759 
Q 2675 1134 2675 2259 
Q 2675 3391 2411 3762 
Q 2147 4134 1753 4134 
Q 1366 4134 1134 3806 
Q 844 3388 844 2259 
z
" transform="scale(0.015625)"/>
       </defs>
       <use xlink:href="#ArialMT-30"/>
      </g>
     </g>
    </g>
    <g id="ytick_2">
     <g id="text_12">
      <!-- 250 -->
      <g style="fill: #262626" transform="translate(30.948906 478.760983)scale(0.11 -0.11)">
       <defs>
        <path id="ArialMT-32" d="M 3222 541 
L 3222 0 
L 194 0 
Q 188 203 259 391 
Q 375 700 629 1000 
Q 884 1300 1366 1694 
Q 2113 2306 2375 2664 
Q 2638 3022 2638 3341 
Q 2638 3675 2398 3904 
Q 2159 4134 1775 4134 
Q 1369 4134 1125 3890 
Q 881 3647 878 3216 
L 300 3275 
Q 359 3922 746 4261 
Q 1134 4600 1788 4600 
Q 2447 4600 2831 4234 
Q 3216 3869 3216 3328 
Q 3216 3053 3103 2787 
Q 2991 2522 2730 2228 
Q 2469 1934 1863 1422 
Q 1356 997 1212 845 
Q 1069 694 975 541 
L 3222 541 
z
" transform="scale(0.015625)"/>
        <path id="ArialMT-35" d="M 266 1200 
L 856 1250 
Q 922 819 1161 601 
Q 1400 384 1738 384 
Q 2144 384 2425 690 
Q 2706 997 2706 1503 
Q 2706 1984 2436 2262 
Q 2166 2541 1728 2541 
Q 1456 2541 1237 2417 
Q 1019 2294 894 2097 
L 366 2166 
L 809 4519 
L 3088 4519 
L 3088 3981 
L 1259 3981 
L 1013 2750 
Q 1425 3038 1878 3038 
Q 2478 3038 2890 2622 
Q 3303 2206 3303 1553 
Q 3303 931 2941 478 
Q 2500 -78 1738 -78 
Q 1113 -78 717 272 
Q 322 622 266 1200 
z
" transform="scale(0.015625)"/>
       </defs>
       <use xlink:href="#ArialMT-32"/>
       <use xlink:href="#ArialMT-35" x="55.615234"/>
       <use xlink:href="#ArialMT-30" x="111.230469"/>
      </g>
     </g>
    </g>
    <g id="ytick_3">
     <g id="text_13">
      <!-- 500 -->
      <g style="fill: #262626" transform="translate(30.948906 421.88517)scale(0.11 -0.11)">
       <use xlink:href="#ArialMT-35"/>
       <use xlink:href="#ArialMT-30" x="55.615234"/>
       <use xlink:href="#ArialMT-30" x="111.230469"/>
      </g>
     </g>
    </g>
    <g id="ytick_4">
     <g id="text_14">
      <!-- 750 -->
      <g style="fill: #262626" transform="translate(30.948906 365.009356)scale(0.11 -0.11)">
       <defs>
        <path id="ArialMT-37" d="M 303 3981 
L 303 4522 
L 3269 4522 
L 3269 4084 
Q 2831 3619 2401 2847 
Q 1972 2075 1738 1259 
Q 1569 684 1522 0 
L 944 0 
Q 953 541 1156 1306 
Q 1359 2072 1739 2783 
Q 2119 3494 2547 3981 
L 303 3981 
z
" transform="scale(0.015625)"/>
       </defs>
       <use xlink:href="#ArialMT-37"/>
       <use xlink:href="#ArialMT-35" x="55.615234"/>
       <use xlink:href="#ArialMT-30" x="111.230469"/>
      </g>
     </g>
    </g>
    <g id="ytick_5">
     <g id="text_15">
      <!-- 1000 -->
      <g style="fill: #262626" transform="translate(24.831875 308.133543)scale(0.11 -0.11)">
       <defs>
        <path id="ArialMT-31" d="M 2384 0 
L 1822 0 
L 1822 3584 
Q 1619 3391 1289 3197 
Q 959 3003 697 2906 
L 697 3450 
Q 1169 3672 1522 3987 
Q 1875 4303 2022 4600 
L 2384 4600 
L 2384 0 
z
" transform="scale(0.015625)"/>
       </defs>
       <use xlink:href="#ArialMT-31"/>
       <use xlink:href="#ArialMT-30" x="55.615234"/>
       <use xlink:href="#ArialMT-30" x="111.230469"/>
       <use xlink:href="#ArialMT-30" x="166.845703"/>
      </g>
     </g>
    </g>
    <g id="ytick_6">
     <g id="text_16">
      <!-- 1250 -->
      <g style="fill: #262626" transform="translate(24.831875 251.25773)scale(0.11 -0.11)">
       <use xlink:href="#ArialMT-31"/>
       <use xlink:href="#ArialMT-32" x="55.615234"/>
       <use xlink:href="#ArialMT-35" x="111.230469"/>
       <use xlink:href="#ArialMT-30" x="166.845703"/>
      </g>
     </g>
    </g>
    <g id="ytick_7">
     <g id="text_17">
      <!-- 1500 -->
      <g style="fill: #262626" transform="translate(24.831875 194.381916)scale(0.11 -0.11)">
       <use xlink:href="#ArialMT-31"/>
       <use xlink:href="#ArialMT-35" x="55.615234"/>
       <use xlink:href="#ArialMT-30" x="111.230469"/>
       <use xlink:href="#ArialMT-30" x="166.845703"/>
      </g>
     </g>
    </g>
    <g id="ytick_8">
     <g id="text_18">
      <!-- 1750 -->
      <g style="fill: #262626" transform="translate(24.831875 137.506103)scale(0.11 -0.11)">
       <use xlink:href="#ArialMT-31"/>
       <use xlink:href="#ArialMT-37" x="55.615234"/>
       <use xlink:href="#ArialMT-35" x="111.230469"/>
       <use xlink:href="#ArialMT-30" x="166.845703"/>
      </g>
     </g>
    </g>
    <g id="ytick_9">
     <g id="text_19">
      <!-- 2000 -->
      <g style="fill: #262626" transform="translate(24.831875 80.630289)scale(0.11 -0.11)">
       <use xlink:href="#ArialMT-32"/>
       <use xlink:href="#ArialMT-30" x="55.615234"/>
       <use xlink:href="#ArialMT-30" x="111.230469"/>
       <use xlink:href="#ArialMT-30" x="166.845703"/>
      </g>
     </g>
    </g>
    <g id="text_20">
     <!-- Label Frequency -->
     <g style="fill: #262626" transform="translate(18.30625 322.941562)rotate(-90)scale(0.12 -0.12)">
      <defs>
       <path id="ArialMT-46" d="M 525 0 
L 525 4581 
L 3616 4581 
L 3616 4041 
L 1131 4041 
L 1131 2622 
L 3281 2622 
L 3281 2081 
L 1131 2081 
L 1131 0 
L 525 0 
z
" transform="scale(0.015625)"/>
       <path id="ArialMT-72" d="M 416 0 
L 416 3319 
L 922 3319 
L 922 2816 
Q 1116 3169 1280 3281 
Q 1444 3394 1641 3394 
Q 1925 3394 2219 3213 
L 2025 2691 
Q 1819 2813 1613 2813 
Q 1428 2813 1281 2702 
Q 1134 2591 1072 2394 
Q 978 2094 978 1738 
L 978 0 
L 416 0 
z
" transform="scale(0.015625)"/>
       <path id="ArialMT-71" d="M 2538 -1272 
L 2538 353 
Q 2406 169 2170 47 
Q 1934 -75 1669 -75 
Q 1078 -75 651 397 
Q 225 869 225 1691 
Q 225 2191 398 2587 
Q 572 2984 901 3189 
Q 1231 3394 1625 3394 
Q 2241 3394 2594 2875 
L 2594 3319 
L 3100 3319 
L 3100 -1272 
L 2538 -1272 
z
M 803 1669 
Q 803 1028 1072 708 
Q 1341 388 1716 388 
Q 2075 388 2334 692 
Q 2594 997 2594 1619 
Q 2594 2281 2320 2615 
Q 2047 2950 1678 2950 
Q 1313 2950 1058 2639 
Q 803 2328 803 1669 
z
" transform="scale(0.015625)"/>
       <path id="ArialMT-75" d="M 2597 0 
L 2597 488 
Q 2209 -75 1544 -75 
Q 1250 -75 995 37 
Q 741 150 617 320 
Q 494 491 444 738 
Q 409 903 409 1263 
L 409 3319 
L 972 3319 
L 972 1478 
Q 972 1038 1006 884 
Q 1059 663 1231 536 
Q 1403 409 1656 409 
Q 1909 409 2131 539 
Q 2353 669 2445 892 
Q 2538 1116 2538 1541 
L 2538 3319 
L 3100 3319 
L 3100 0 
L 2597 0 
z
" transform="scale(0.015625)"/>
       <path id="ArialMT-6e" d="M 422 0 
L 422 3319 
L 928 3319 
L 928 2847 
Q 1294 3394 1984 3394 
Q 2284 3394 2536 3286 
Q 2788 3178 2913 3003 
Q 3038 2828 3088 2588 
Q 3119 2431 3119 2041 
L 3119 0 
L 2556 0 
L 2556 2019 
Q 2556 2363 2490 2533 
Q 2425 2703 2258 2804 
Q 2091 2906 1866 2906 
Q 1506 2906 1245 2678 
Q 984 2450 984 1813 
L 984 0 
L 422 0 
z
" transform="scale(0.015625)"/>
       <path id="ArialMT-63" d="M 2588 1216 
L 3141 1144 
Q 3050 572 2676 248 
Q 2303 -75 1759 -75 
Q 1078 -75 664 370 
Q 250 816 250 1647 
Q 250 2184 428 2587 
Q 606 2991 970 3192 
Q 1334 3394 1763 3394 
Q 2303 3394 2647 3120 
Q 2991 2847 3088 2344 
L 2541 2259 
Q 2463 2594 2264 2762 
Q 2066 2931 1784 2931 
Q 1359 2931 1093 2626 
Q 828 2322 828 1663 
Q 828 994 1084 691 
Q 1341 388 1753 388 
Q 2084 388 2306 591 
Q 2528 794 2588 1216 
z
" transform="scale(0.015625)"/>
       <path id="ArialMT-79" d="M 397 -1278 
L 334 -750 
Q 519 -800 656 -800 
Q 844 -800 956 -737 
Q 1069 -675 1141 -563 
Q 1194 -478 1313 -144 
Q 1328 -97 1363 -6 
L 103 3319 
L 709 3319 
L 1400 1397 
Q 1534 1031 1641 628 
Q 1738 1016 1872 1384 
L 2581 3319 
L 3144 3319 
L 1881 -56 
Q 1678 -603 1566 -809 
Q 1416 -1088 1222 -1217 
Q 1028 -1347 759 -1347 
Q 597 -1347 397 -1278 
z
" transform="scale(0.015625)"/>
      </defs>
      <use xlink:href="#ArialMT-4c"/>
      <use xlink:href="#ArialMT-61" x="55.615234"/>
      <use xlink:href="#ArialMT-62" x="111.230469"/>
      <use xlink:href="#ArialMT-65" x="166.845703"/>
      <use xlink:href="#ArialMT-6c" x="222.460938"/>
      <use xlink:href="#ArialMT-20" x="244.677734"/>
      <use xlink:href="#ArialMT-46" x="272.460938"/>
      <use xlink:href="#ArialMT-72" x="333.544922"/>
      <use xlink:href="#ArialMT-65" x="366.845703"/>
      <use xlink:href="#ArialMT-71" x="422.460938"/>
      <use xlink:href="#ArialMT-75" x="478.076172"/>
      <use xlink:href="#ArialMT-65" x="533.691406"/>
      <use xlink:href="#ArialMT-6e" x="589.306641"/>
      <use xlink:href="#ArialMT-63" x="644.921875"/>
      <use xlink:href="#ArialMT-79" x="694.921875"/>
     </g>
    </g>
   </g>
   <g id="patch_3">
    <path d="M 66.026667 531.7 
L 123.84 531.7 
L 123.84 475.506696 
L 66.026667 475.506696 
z
" clip-path="url(#p968299a253)" style="fill: #dab257; stroke: #ffffff; stroke-linejoin: miter"/>
   </g>
   <g id="patch_4">
    <path d="M 138.293333 531.7 
L 196.106667 531.7 
L 196.106667 486.426852 
L 138.293333 486.426852 
z
" clip-path="url(#p968299a253)" style="fill: #dab257; stroke: #ffffff; stroke-linejoin: miter"/>
   </g>
   <g id="patch_5">
    <path d="M 210.56 531.7 
L 268.373333 531.7 
L 268.373333 490.066905 
L 210.56 490.066905 
z
" clip-path="url(#p968299a253)" style="fill: #dab257; stroke: #ffffff; stroke-linejoin: miter"/>
   </g>
   <g id="patch_6">
    <path d="M 0 0 
z
" clip-path="url(#p968299a253)" style="fill: #dab257; stroke: #ffffff; stroke-linejoin: miter"/>
   </g>
   <g id="patch_7">
    <path d="M 0 0 
z
" clip-path="url(#p968299a253)" style="fill: #dab257; stroke: #ffffff; stroke-linejoin: miter"/>
   </g>
   <g id="patch_8">
    <path d="M 0 0 
z
" clip-path="url(#p968299a253)" style="fill: #dab257; stroke: #ffffff; stroke-linejoin: miter"/>
   </g>
   <g id="patch_9">
    <path d="M 0 0 
z
" clip-path="url(#p968299a253)" style="fill: #dab257; stroke: #ffffff; stroke-linejoin: miter"/>
   </g>
   <g id="patch_10">
    <path d="M 0 0 
z
" clip-path="url(#p968299a253)" style="fill: #dab257; stroke: #ffffff; stroke-linejoin: miter"/>
   </g>
   <g id="patch_11">
    <path d="M 0 0 
z
" clip-path="url(#p968299a253)" style="fill: #dab257; stroke: #ffffff; stroke-linejoin: miter"/>
   </g>
   <g id="patch_12">
    <path d="M 0 0 
z
" clip-path="url(#p968299a253)" style="fill: #b03c35; stroke: #ffffff; stroke-linejoin: miter"/>
   </g>
   <g id="patch_13">
    <path d="M 0 0 
z
" clip-path="url(#p968299a253)" style="fill: #b03c35; stroke: #ffffff; stroke-linejoin: miter"/>
   </g>
   <g id="patch_14">
    <path d="M 0 0 
z
" clip-path="url(#p968299a253)" style="fill: #b03c35; stroke: #ffffff; stroke-linejoin: miter"/>
   </g>
   <g id="patch_15">
    <path d="M 282.826667 531.7 
L 340.64 531.7 
L 340.64 280.536408 
L 282.826667 280.536408 
z
" clip-path="url(#p968299a253)" style="fill: #b03c35; stroke: #ffffff; stroke-linejoin: miter"/>
   </g>
   <g id="patch_16">
    <path d="M 355.093333 531.7 
L 412.906667 531.7 
L 412.906667 458.671456 
L 355.093333 458.671456 
z
" clip-path="url(#p968299a253)" style="fill: #b03c35; stroke: #ffffff; stroke-linejoin: miter"/>
   </g>
   <g id="patch_17">
    <path d="M 427.36 531.7 
L 485.173333 531.7 
L 485.173333 467.544082 
L 427.36 467.544082 
z
" clip-path="url(#p968299a253)" style="fill: #b03c35; stroke: #ffffff; stroke-linejoin: miter"/>
   </g>
   <g id="patch_18">
    <path d="M 0 0 
z
" clip-path="url(#p968299a253)" style="fill: #b03c35; stroke: #ffffff; stroke-linejoin: miter"/>
   </g>
   <g id="patch_19">
    <path d="M 0 0 
z
" clip-path="url(#p968299a253)" style="fill: #b03c35; stroke: #ffffff; stroke-linejoin: miter"/>
   </g>
   <g id="patch_20">
    <path d="M 0 0 
z
" clip-path="url(#p968299a253)" style="fill: #b03c35; stroke: #ffffff; stroke-linejoin: miter"/>
   </g>
   <g id="patch_21">
    <path d="M 0 0 
z
" clip-path="url(#p968299a253)" style="fill: #5c88a6; stroke: #ffffff; stroke-linejoin: miter"/>
   </g>
   <g id="patch_22">
    <path d="M 0 0 
z
" clip-path="url(#p968299a253)" style="fill: #5c88a6; stroke: #ffffff; stroke-linejoin: miter"/>
   </g>
   <g id="patch_23">
    <path d="M 0 0 
z
" clip-path="url(#p968299a253)" style="fill: #5c88a6; stroke: #ffffff; stroke-linejoin: miter"/>
   </g>
   <g id="patch_24">
    <path d="M 0 0 
z
" clip-path="url(#p968299a253)" style="fill: #5c88a6; stroke: #ffffff; stroke-linejoin: miter"/>
   </g>
   <g id="patch_25">
    <path d="M 0 0 
z
" clip-path="url(#p968299a253)" style="fill: #5c88a6; stroke: #ffffff; stroke-linejoin: miter"/>
   </g>
   <g id="patch_26">
    <path d="M 0 0 
z
" clip-path="url(#p968299a253)" style="fill: #5c88a6; stroke: #ffffff; stroke-linejoin: miter"/>
   </g>
   <g id="patch_27">
    <path d="M 499.626667 531.7 
L 557.44 531.7 
L 557.44 48.938095 
L 499.626667 48.938095 
z
" clip-path="url(#p968299a253)" style="fill: #5c88a6; stroke: #ffffff; stroke-linejoin: miter"/>
   </g>
   <g id="patch_28">
    <path d="M 571.893333 531.7 
L 629.706667 531.7 
L 629.706667 132.431789 
L 571.893333 132.431789 
z
" clip-path="url(#p968299a253)" style="fill: #5c88a6; stroke: #ffffff; stroke-linejoin: miter"/>
   </g>
   <g id="patch_29">
    <path d="M 644.16 531.7 
L 701.973333 531.7 
L 701.973333 320.349477 
L 644.16 320.349477 
z
" clip-path="url(#p968299a253)" style="fill: #5c88a6; stroke: #ffffff; stroke-linejoin: miter"/>
   </g>
   <g id="line2d_1">
    <path clip-path="url(#p968299a253)" style="fill: none; stroke: #424242; stroke-width: 2.7; stroke-linecap: round"/>
   </g>
   <g id="line2d_2">
    <path clip-path="url(#p968299a253)" style="fill: none; stroke: #424242; stroke-width: 2.7; stroke-linecap: round"/>
   </g>
   <g id="line2d_3">
    <path clip-path="url(#p968299a253)" style="fill: none; stroke: #424242; stroke-width: 2.7; stroke-linecap: round"/>
   </g>
   <g id="line2d_4">
    <path clip-path="url(#p968299a253)" style="fill: none; stroke: #424242; stroke-width: 2.7; stroke-linecap: round"/>
   </g>
   <g id="line2d_5">
    <path clip-path="url(#p968299a253)" style="fill: none; stroke: #424242; stroke-width: 2.7; stroke-linecap: round"/>
   </g>
   <g id="line2d_6">
    <path clip-path="url(#p968299a253)" style="fill: none; stroke: #424242; stroke-width: 2.7; stroke-linecap: round"/>
   </g>
   <g id="line2d_7">
    <path clip-path="url(#p968299a253)" style="fill: none; stroke: #424242; stroke-width: 2.7; stroke-linecap: round"/>
   </g>
   <g id="line2d_8">
    <path clip-path="url(#p968299a253)" style="fill: none; stroke: #424242; stroke-width: 2.7; stroke-linecap: round"/>
   </g>
   <g id="line2d_9">
    <path clip-path="url(#p968299a253)" style="fill: none; stroke: #424242; stroke-width: 2.7; stroke-linecap: round"/>
   </g>
   <g id="line2d_10">
    <path clip-path="url(#p968299a253)" style="fill: none; stroke: #424242; stroke-width: 2.7; stroke-linecap: round"/>
   </g>
   <g id="line2d_11">
    <path clip-path="url(#p968299a253)" style="fill: none; stroke: #424242; stroke-width: 2.7; stroke-linecap: round"/>
   </g>
   <g id="line2d_12">
    <path clip-path="url(#p968299a253)" style="fill: none; stroke: #424242; stroke-width: 2.7; stroke-linecap: round"/>
   </g>
   <g id="line2d_13">
    <path clip-path="url(#p968299a253)" style="fill: none; stroke: #424242; stroke-width: 2.7; stroke-linecap: round"/>
   </g>
   <g id="line2d_14">
    <path clip-path="url(#p968299a253)" style="fill: none; stroke: #424242; stroke-width: 2.7; stroke-linecap: round"/>
   </g>
   <g id="line2d_15">
    <path clip-path="url(#p968299a253)" style="fill: none; stroke: #424242; stroke-width: 2.7; stroke-linecap: round"/>
   </g>
   <g id="line2d_16">
    <path clip-path="url(#p968299a253)" style="fill: none; stroke: #424242; stroke-width: 2.7; stroke-linecap: round"/>
   </g>
   <g id="line2d_17">
    <path clip-path="url(#p968299a253)" style="fill: none; stroke: #424242; stroke-width: 2.7; stroke-linecap: round"/>
   </g>
   <g id="line2d_18">
    <path clip-path="url(#p968299a253)" style="fill: none; stroke: #424242; stroke-width: 2.7; stroke-linecap: round"/>
   </g>
   <g id="line2d_19">
    <path clip-path="url(#p968299a253)" style="fill: none; stroke: #424242; stroke-width: 2.7; stroke-linecap: round"/>
   </g>
   <g id="line2d_20">
    <path clip-path="url(#p968299a253)" style="fill: none; stroke: #424242; stroke-width: 2.7; stroke-linecap: round"/>
   </g>
   <g id="line2d_21">
    <path clip-path="url(#p968299a253)" style="fill: none; stroke: #424242; stroke-width: 2.7; stroke-linecap: round"/>
   </g>
   <g id="line2d_22">
    <path clip-path="url(#p968299a253)" style="fill: none; stroke: #424242; stroke-width: 2.7; stroke-linecap: round"/>
   </g>
   <g id="line2d_23">
    <path clip-path="url(#p968299a253)" style="fill: none; stroke: #424242; stroke-width: 2.7; stroke-linecap: round"/>
   </g>
   <g id="line2d_24">
    <path clip-path="url(#p968299a253)" style="fill: none; stroke: #424242; stroke-width: 2.7; stroke-linecap: round"/>
   </g>
   <g id="line2d_25">
    <path clip-path="url(#p968299a253)" style="fill: none; stroke: #424242; stroke-width: 2.7; stroke-linecap: round"/>
   </g>
   <g id="line2d_26">
    <path clip-path="url(#p968299a253)" style="fill: none; stroke: #424242; stroke-width: 2.7; stroke-linecap: round"/>
   </g>
   <g id="line2d_27">
    <path clip-path="url(#p968299a253)" style="fill: none; stroke: #424242; stroke-width: 2.7; stroke-linecap: round"/>
   </g>
   <g id="patch_30">
    <path d="M 58.8 531.7 
L 58.8 24.8 
" style="fill: none; stroke: #cccccc; stroke-width: 1.25; stroke-linejoin: miter; stroke-linecap: square"/>
   </g>
   <g id="patch_31">
    <path d="M 58.8 531.7 
L 709.2 531.7 
" style="fill: none; stroke: #cccccc; stroke-width: 1.25; stroke-linejoin: miter; stroke-linecap: square"/>
   </g>
   <g id="text_21">
    <!-- Frequency of Top Ground, Vehicle, and Tenor Labels -->
    <g style="fill: #262626" transform="translate(244.13625 18.8)scale(0.12 -0.12)">
     <defs>
      <path id="ArialMT-66" d="M 556 0 
L 556 2881 
L 59 2881 
L 59 3319 
L 556 3319 
L 556 3672 
Q 556 4006 616 4169 
Q 697 4388 901 4523 
Q 1106 4659 1475 4659 
Q 1713 4659 2000 4603 
L 1916 4113 
Q 1741 4144 1584 4144 
Q 1328 4144 1222 4034 
Q 1116 3925 1116 3625 
L 1116 3319 
L 1763 3319 
L 1763 2881 
L 1116 2881 
L 1116 0 
L 556 0 
z
" transform="scale(0.015625)"/>
      <path id="ArialMT-47" d="M 2638 1797 
L 2638 2334 
L 4578 2338 
L 4578 638 
Q 4131 281 3656 101 
Q 3181 -78 2681 -78 
Q 2006 -78 1454 211 
Q 903 500 622 1047 
Q 341 1594 341 2269 
Q 341 2938 620 3517 
Q 900 4097 1425 4378 
Q 1950 4659 2634 4659 
Q 3131 4659 3532 4498 
Q 3934 4338 4162 4050 
Q 4391 3763 4509 3300 
L 3963 3150 
Q 3859 3500 3706 3700 
Q 3553 3900 3268 4020 
Q 2984 4141 2638 4141 
Q 2222 4141 1919 4014 
Q 1616 3888 1430 3681 
Q 1244 3475 1141 3228 
Q 966 2803 966 2306 
Q 966 1694 1177 1281 
Q 1388 869 1791 669 
Q 2194 469 2647 469 
Q 3041 469 3416 620 
Q 3791 772 3984 944 
L 3984 1797 
L 2638 1797 
z
" transform="scale(0.015625)"/>
      <path id="ArialMT-64" d="M 2575 0 
L 2575 419 
Q 2259 -75 1647 -75 
Q 1250 -75 917 144 
Q 584 363 401 755 
Q 219 1147 219 1656 
Q 219 2153 384 2558 
Q 550 2963 881 3178 
Q 1213 3394 1622 3394 
Q 1922 3394 2156 3267 
Q 2391 3141 2538 2938 
L 2538 4581 
L 3097 4581 
L 3097 0 
L 2575 0 
z
M 797 1656 
Q 797 1019 1065 703 
Q 1334 388 1700 388 
Q 2069 388 2326 689 
Q 2584 991 2584 1609 
Q 2584 2291 2321 2609 
Q 2059 2928 1675 2928 
Q 1300 2928 1048 2622 
Q 797 2316 797 1656 
z
" transform="scale(0.015625)"/>
      <path id="ArialMT-2c" d="M 569 0 
L 569 641 
L 1209 641 
L 1209 0 
Q 1209 -353 1084 -570 
Q 959 -788 688 -906 
L 531 -666 
Q 709 -588 793 -436 
Q 878 -284 888 0 
L 569 0 
z
" transform="scale(0.015625)"/>
      <path id="ArialMT-56" d="M 1803 0 
L 28 4581 
L 684 4581 
L 1875 1253 
Q 2019 853 2116 503 
Q 2222 878 2363 1253 
L 3600 4581 
L 4219 4581 
L 2425 0 
L 1803 0 
z
" transform="scale(0.015625)"/>
      <path id="ArialMT-68" d="M 422 0 
L 422 4581 
L 984 4581 
L 984 2938 
Q 1378 3394 1978 3394 
Q 2347 3394 2619 3248 
Q 2891 3103 3008 2847 
Q 3125 2591 3125 2103 
L 3125 0 
L 2563 0 
L 2563 2103 
Q 2563 2525 2380 2717 
Q 2197 2909 1863 2909 
Q 1613 2909 1392 2779 
Q 1172 2650 1078 2428 
Q 984 2206 984 1816 
L 984 0 
L 422 0 
z
" transform="scale(0.015625)"/>
      <path id="ArialMT-69" d="M 425 3934 
L 425 4581 
L 988 4581 
L 988 3934 
L 425 3934 
z
M 425 0 
L 425 3319 
L 988 3319 
L 988 0 
L 425 0 
z
" transform="scale(0.015625)"/>
     </defs>
     <use xlink:href="#ArialMT-46"/>
     <use xlink:href="#ArialMT-72" x="61.083984"/>
     <use xlink:href="#ArialMT-65" x="94.384766"/>
     <use xlink:href="#ArialMT-71" x="150"/>
     <use xlink:href="#ArialMT-75" x="205.615234"/>
     <use xlink:href="#ArialMT-65" x="261.230469"/>
     <use xlink:href="#ArialMT-6e" x="316.845703"/>
     <use xlink:href="#ArialMT-63" x="372.460938"/>
     <use xlink:href="#ArialMT-79" x="422.460938"/>
     <use xlink:href="#ArialMT-20" x="472.460938"/>
     <use xlink:href="#ArialMT-6f" x="500.244141"/>
     <use xlink:href="#ArialMT-66" x="555.859375"/>
     <use xlink:href="#ArialMT-20" x="583.642578"/>
     <use xlink:href="#ArialMT-54" x="609.675781"/>
     <use xlink:href="#ArialMT-6f" x="659.634766"/>
     <use xlink:href="#ArialMT-70" x="715.25"/>
     <use xlink:href="#ArialMT-20" x="770.865234"/>
     <use xlink:href="#ArialMT-47" x="798.648438"/>
     <use xlink:href="#ArialMT-72" x="876.431641"/>
     <use xlink:href="#ArialMT-6f" x="909.732422"/>
     <use xlink:href="#ArialMT-75" x="965.347656"/>
     <use xlink:href="#ArialMT-6e" x="1020.962891"/>
     <use xlink:href="#ArialMT-64" x="1076.578125"/>
     <use xlink:href="#ArialMT-2c" x="1132.193359"/>
     <use xlink:href="#ArialMT-20" x="1159.976562"/>
     <use xlink:href="#ArialMT-56" x="1187.759766"/>
     <use xlink:href="#ArialMT-65" x="1248.958984"/>
     <use xlink:href="#ArialMT-68" x="1304.574219"/>
     <use xlink:href="#ArialMT-69" x="1360.189453"/>
     <use xlink:href="#ArialMT-63" x="1382.40625"/>
     <use xlink:href="#ArialMT-6c" x="1432.40625"/>
     <use xlink:href="#ArialMT-65" x="1454.623047"/>
     <use xlink:href="#ArialMT-2c" x="1510.238281"/>
     <use xlink:href="#ArialMT-20" x="1538.021484"/>
     <use xlink:href="#ArialMT-61" x="1565.804688"/>
     <use xlink:href="#ArialMT-6e" x="1621.419922"/>
     <use xlink:href="#ArialMT-64" x="1677.035156"/>
     <use xlink:href="#ArialMT-20" x="1732.650391"/>
     <use xlink:href="#ArialMT-54" x="1758.683594"/>
     <use xlink:href="#ArialMT-65" x="1808.642578"/>
     <use xlink:href="#ArialMT-6e" x="1864.257812"/>
     <use xlink:href="#ArialMT-6f" x="1919.873047"/>
     <use xlink:href="#ArialMT-72" x="1975.488281"/>
     <use xlink:href="#ArialMT-20" x="2008.789062"/>
     <use xlink:href="#ArialMT-4c" x="2036.572266"/>
     <use xlink:href="#ArialMT-61" x="2092.1875"/>
     <use xlink:href="#ArialMT-62" x="2147.802734"/>
     <use xlink:href="#ArialMT-65" x="2203.417969"/>
     <use xlink:href="#ArialMT-6c" x="2259.033203"/>
     <use xlink:href="#ArialMT-73" x="2281.25"/>
    </g>
   </g>
   <g id="legend_1">
    <g id="patch_32">
     <path d="M 629.613281 80.279531 
L 701.5 80.279531 
Q 703.7 80.279531 703.7 78.079531 
L 703.7 32.5 
Q 703.7 30.3 701.5 30.3 
L 629.613281 30.3 
Q 627.413281 30.3 627.413281 32.5 
L 627.413281 78.079531 
Q 627.413281 80.279531 629.613281 80.279531 
z
" style="fill: #ffffff; opacity: 0.8; stroke: #cccccc; stroke-linejoin: miter"/>
    </g>
    <g id="patch_33">
     <path d="M 631.813281 42.573594 
L 653.813281 42.573594 
L 653.813281 34.873594 
L 631.813281 34.873594 
z
" style="fill: #dab257; stroke: #ffffff; stroke-linejoin: miter"/>
    </g>
    <g id="text_22">
     <!-- Ground -->
     <g style="fill: #262626" transform="translate(662.613281 42.573594)scale(0.11 -0.11)">
      <use xlink:href="#ArialMT-47"/>
      <use xlink:href="#ArialMT-72" x="77.783203"/>
      <use xlink:href="#ArialMT-6f" x="111.083984"/>
      <use xlink:href="#ArialMT-75" x="166.699219"/>
      <use xlink:href="#ArialMT-6e" x="222.314453"/>
      <use xlink:href="#ArialMT-64" x="277.929688"/>
     </g>
    </g>
    <g id="patch_34">
     <path d="M 631.813281 58.133438 
L 653.813281 58.133438 
L 653.813281 50.433438 
L 631.813281 50.433438 
z
" style="fill: #b03c35; stroke: #ffffff; stroke-linejoin: miter"/>
    </g>
    <g id="text_23">
     <!-- Vehicle -->
     <g style="fill: #262626" transform="translate(662.613281 58.133438)scale(0.11 -0.11)">
      <use xlink:href="#ArialMT-56"/>
      <use xlink:href="#ArialMT-65" x="61.199219"/>
      <use xlink:href="#ArialMT-68" x="116.814453"/>
      <use xlink:href="#ArialMT-69" x="172.429688"/>
      <use xlink:href="#ArialMT-63" x="194.646484"/>
      <use xlink:href="#ArialMT-6c" x="244.646484"/>
      <use xlink:href="#ArialMT-65" x="266.863281"/>
     </g>
    </g>
    <g id="patch_35">
     <path d="M 631.813281 73.693281 
L 653.813281 73.693281 
L 653.813281 65.993281 
L 631.813281 65.993281 
z
" style="fill: #5c88a6; stroke: #ffffff; stroke-linejoin: miter"/>
    </g>
    <g id="text_24">
     <!-- Tenor -->
     <g style="fill: #262626" transform="translate(662.613281 73.693281)scale(0.11 -0.11)">
      <use xlink:href="#ArialMT-54"/>
      <use xlink:href="#ArialMT-65" x="49.958984"/>
      <use xlink:href="#ArialMT-6e" x="105.574219"/>
      <use xlink:href="#ArialMT-6f" x="161.189453"/>
      <use xlink:href="#ArialMT-72" x="216.804688"/>
     </g>
    </g>
   </g>
  </g>
 </g>
 <defs>
  <clipPath id="p968299a253">
   <rect x="58.8" y="24.8" width="650.4" height="506.9"/>
  </clipPath>
 </defs>
</svg>
